<svg version="1" xmlns="http://www.w3.org/2000/svg" width="1066.667" height="1066.667" viewBox="0 0 800.000000 800.000000"><path d="M0 400v400h800V0H0v400zm446.1-222.8c.1 50.8.4 93.6.8 95.3l.7 3 10.1-10.5c18.3-19 34.4-29 58.8-36.3 9.6-2.9 29-4.2 43.7-2.8 30.6 2.8 52.4 11.5 69.4 27.8 19.8 19 34.1 47.6 41.9 84.2 6.2 28.8 7.8 80.4 3.6 112.6-3.7 27.9-15.8 63.2-28.1 81.6-13.4 19.9-32.8 37.8-49 45.1-12.5 5.7-21.9 8.9-31.8 10.8-15.3 2.9-44.9 2.5-58.2-.9-13.8-3.5-16-4.2-26-9-11.1-5.3-19.9-11.7-29.3-21.2-3.8-3.8-7.2-6.9-7.7-6.9-1.3 0-3 5.9-3 10.8 0 4-1.2 13.4-2.6 20l-.4 2.2-23.8-.2-23.7-.3-.6-3c-.9-3.9-1.1-476.8-.3-482.9.6-4.3.9-4.7 4.3-5.6 2-.5 9.7-1.7 17.1-2.6 7.4-.9 15.8-2 18.5-2.4 2.8-.4 7.4-.8 10.3-.9l5.2-.1.1 92.2zm-133.7-70c7.8 2.3 15.5 7.6 20.2 14 5.6 7.6 5.9 8.9 5.8 21.8 0 9.2-.3 11.2-2.4 15-4.1 7.5-8.6 12.5-15.4 17l-6.6 4.2h-26.1l-7-4.6c-8.9-5.9-14-13.6-16.4-24.4-2.9-13.1-.5-22.5 8.2-32.2 4.4-5 8.9-7.8 16.2-10.5 4.6-1.7 18.1-1.9 23.5-.3zm36.1 155.4c1.4 1.5 1.6 14.7 1.2 151.8l-.3 150.1-2.7 12.5c-7.3 34.6-19.7 58-42.7 80.8-9.7 9.7-24.7 21.2-31 23.9-.8.3-2.2 1.2-3 1.8-2.1 1.8-16.6 9.3-22 11.5-2.5 1-8 3.4-12.3 5.4-11.4 5.4-25.5 10.1-48.7 16.5-15.3 4.2-22.4 5.7-35.4 7.6-9 1.4-11.1 1.4-12.1.3-1.4-1.5-4.5-11.2-4.5-13.9 0-1.1-.9-5.5-2.1-9.9-2.6-10.1-2.3-14.2 1.1-15.2 6.2-1.8 14.3-3.8 23.5-5.8 5.5-1.2 13.2-3.2 17-4.5 3.9-1.3 12.2-3.9 18.5-5.9 6.3-2 13.5-4.6 16-5.8 2.5-1.1 5.9-2.6 7.5-3.3 15.8-6.7 34.5-18.7 45.7-29.4 9.7-9.2 18.6-21.6 24.2-33.6 3.3-7.1 8.1-23.6 8.9-31 .5-4.4 1.1-65 1.3-134.6.4-117.8.3-126.7-1.2-128-1.4-1.2-13.3-1.5-68.8-1.9l-67.1-.5-.3-18.5c-.3-17.9-.2-18.6 1.9-20.3 2-1.6 8-1.7 93.9-1.7 83.2 0 92 .2 93.5 1.6z"/><path d="M523.5 270.7c-14.6 2.4-34.4 11.4-43.7 19.8-1.8 1.6-6.2 5.4-9.6 8.4-7.9 6.7-22.9 26.1-23.7 30.4-.3 1.8-.4 40.8-.3 86.7l.3 83.5 4.6 6.5c10.8 15.2 31.7 30.7 46.4 34.7 12.2 3.3 18.2 4.3 25.7 4.3 10.5 0 27.2-3 36.2-6.4 16.4-6.3 30.9-20.2 40.4-38.7 2.9-5.7 5.2-10.8 5.2-11.3s1.5-5.9 3.4-12c5.6-18.6 8.6-43.3 8.6-72.1 0-36.8-6.2-69.7-17.4-92.3-4.8-9.9-14.9-22.9-21.3-27.8-2.1-1.5-4-3.1-4.3-3.4-1.2-1.5-16.2-7-23-8.5-8-1.7-22.5-2.7-27.5-1.8z"/></svg>